<svg width="1057" height="16" viewBox="0 0 1057 16" fill="none" xmlns="http://www.w3.org/2000/svg">
<g clip-path="url(#clip0_34_70)">
<mask id="mask0_34_70" style="mask-type:luminance" maskUnits="userSpaceOnUse" x="0" y="0" width="1057" height="16">
<path d="M1057 0H0V16H1057V0Z" fill="white"/>
</mask>
<g mask="url(#mask0_34_70)">
<path d="M645.045 10.3123L483.866 10.1122L425.058 10.1495L217.902 9.81875C187.239 9.79723 156.391 9.88268 125.948 9.99999L67.1773 10.2919L8.55918 10.3192C7.06442 10.3268 5.73488 10.3168 4.6898 10.3008C3.82771 10.3041 2.97134 10.2899 2.12444 10.2582C0.792578 10.2041 0.193494 10.094 0.257564 9.95791C0.321634 9.82185 1.07161 9.64099 2.48474 9.43425C4.50345 9.14921 6.56543 8.93163 8.6449 8.78421C26.1188 7.5169 43.6714 6.81645 61.103 6.69082L76.1179 6.54125L91.1138 6.48114L121.084 6.39745L181.029 6.33596C221.011 6.34119 261.077 6.43052 301.225 6.60394C349.272 6.82076 399.431 6.60835 448.653 6.61318L611.058 6.66062L710.996 6.65391C761.472 6.60185 812.142 6.60165 862.3 6.3716C901.26 6.19739 939.543 5.77558 978.133 5.34646L1003.51 5.02562C1035.27 4.67124 1045.24 4.74164 1051.86 5.66869C1053.39 5.84051 1054.86 6.05924 1056.26 6.32285C1059.25 7.05139 1046.01 8.07215 1022.63 8.52706C953.356 9.86477 880.723 10.1043 807.803 10.3058C753.651 10.4266 699.326 10.4148 645.075 10.4346L645.045 10.3123Z" fill="#231F20"/>
</g>
</g>
<defs>
<clipPath id="clip0_34_70">
<rect width="1057" height="16" fill="white"/>
</clipPath>
</defs>
</svg>