<svg width="22" height="29" viewBox="0 0 22 29" fill="none" xmlns="http://www.w3.org/2000/svg">
<g clip-path="url(#clip0_34_58)">
<path opacity="0.55" d="M19.9815 22.3781C19.9815 22.3781 17.6215 9.76819 12.4415 11.0681C7.25149 12.3681 1.62148 14.5581 1.62148 14.5581C1.62148 14.5581 0.921484 29.2481 4.80149 28.1181C8.68149 26.9881 19.9815 22.3781 19.9815 22.3781Z" fill="#231F20"/>
<path d="M5.31048 25.5178C7.32048 25.6578 9.63048 25.3378 11.8005 24.8578C12.6005 24.6678 13.3605 24.3677 14.1505 24.1477C15.1005 23.8577 16.0505 23.5477 16.9105 23.1477C17.3605 22.9577 17.7405 22.7378 18.1305 22.5078L18.6005 22.1578C18.7405 22.0478 18.7705 21.9478 18.9105 21.8578C19.0705 21.6478 19.1005 20.7477 18.8905 19.9377C18.6105 18.7277 18.0505 17.5078 17.4605 16.3478C16.7605 14.8078 15.9305 13.3078 15.6005 11.5178C15.4305 10.9978 15.5205 11.0278 15.9105 11.3278C16.1205 11.4678 16.3305 11.7178 16.8305 11.8778C17.2405 12.0878 17.6105 12.4077 17.9805 12.7777C19.1005 14.0277 20.0505 15.3977 20.7305 16.9877C21.0905 17.7677 21.4205 18.5978 21.6505 19.5378C21.7105 19.7678 21.7605 20.0078 21.8005 20.2678C21.8405 20.5178 21.8805 20.7778 21.8805 21.0778C21.9305 21.5878 21.7605 22.4378 21.4305 23.0778C21.1905 23.4478 20.8905 23.8577 20.6105 24.0877C19.5105 25.0377 18.4805 25.5177 17.4305 26.0577C16.3805 26.5877 15.3205 26.9978 14.2405 27.3478C11.8605 28.0678 9.43048 28.5078 6.91048 28.6678L5.73047 28.6877C5.33047 28.6877 4.92048 28.6377 4.52048 28.6177C4.10048 28.5577 3.69047 28.4878 3.26047 28.3878L2.52048 28.1278C2.27048 28.0278 2.04047 27.8778 1.84047 27.6978C1.54047 27.4178 1.31048 27.0677 1.13048 26.7177C0.960483 26.3977 0.860473 26.0978 0.760473 25.7978C0.570473 25.1978 0.450479 24.6077 0.360479 24.0277C0.170479 22.8677 0.100476 21.7178 0.0604757 20.5778C0.000475664 18.8078 -0.0795139 17.0577 0.180486 15.2377C0.240486 14.8377 0.290472 14.4378 0.400472 14.0378C0.610472 13.2978 0.860472 12.8078 1.15047 12.5478C1.48047 12.2878 1.80048 12.2277 2.19048 12.2777C2.37048 12.2977 2.55048 12.3078 2.69048 12.3578C2.94048 12.4478 3.08048 12.6678 3.17048 12.9778C3.25048 13.2778 3.32047 13.6778 3.23047 14.1078C3.02047 15.4078 2.95048 16.8377 2.96048 18.2777C2.96048 19.7177 3.05048 21.2078 3.28048 22.6078C3.36048 23.1278 3.47047 23.6378 3.59047 24.1078C3.70047 24.5478 3.91048 25.0477 3.97048 25.2077C3.97048 25.2077 3.97048 25.2277 3.97048 25.2377C3.96048 25.2377 3.94048 25.2278 4.03048 25.2678C4.36048 25.3578 4.81048 25.4278 5.31048 25.4478V25.5277V25.5178Z" fill="#231F20"/>
<path d="M0.851028 11.3781C0.711028 9.19812 1.04103 7.14813 1.71103 5.13813C1.96103 4.40813 2.21102 3.65811 2.65102 2.96811C3.38102 1.77811 4.55103 0.548119 6.21103 0.128119C7.79103 -0.261881 9.43103 0.28813 10.551 1.10813C11.551 1.86813 12.331 2.77812 13.001 3.72812C13.861 4.93812 14.441 6.36813 14.381 7.91813C14.351 8.40813 14.141 8.32811 13.791 8.02811C13.561 7.83811 13.321 7.64812 13.111 7.47812C12.971 7.36812 12.821 7.25813 12.691 7.13813C12.621 7.07813 12.561 7.00811 12.481 6.95811L12.311 6.74811C12.131 6.48811 11.911 6.2381 11.721 5.9881L11.401 5.63813C11.321 5.50813 11.221 5.38813 11.121 5.26813C10.751 4.77813 10.341 4.33812 9.92102 3.93812C9.71102 3.74812 9.50102 3.55813 9.28102 3.41813C9.08102 3.22813 8.87103 3.11811 8.66103 2.95811C8.24103 2.70811 7.83102 2.5681 7.37102 2.4881C6.25102 2.2981 5.29102 3.50812 4.65102 4.87812C3.90102 6.38812 3.47102 8.19812 3.36102 9.97812C3.36102 10.2781 3.34102 10.5881 3.36102 10.8881L3.38103 11.3081C3.38103 11.3981 3.39102 11.4681 3.40102 11.5581C3.41102 11.6881 3.41103 11.8381 3.52103 11.9281C3.62103 12.0181 3.75102 12.0581 3.89102 12.0781C4.00102 12.0981 4.12102 12.0981 4.23102 12.0981C4.38102 12.0981 4.62103 12.0881 4.82103 12.0681C5.24103 12.0281 5.66102 11.9681 6.09102 11.8881C6.95102 11.7381 7.81102 11.5381 8.67102 11.3081C10.001 10.9381 11.261 10.4081 12.611 10.0081C12.911 9.91812 13.201 9.81811 13.521 9.74811C14.111 9.62811 14.531 9.60812 14.831 9.71811C15.141 9.85812 15.311 10.0681 15.431 10.3881C15.481 10.5281 15.551 10.6681 15.561 10.8081C15.591 11.0381 15.481 11.2381 15.311 11.4281C15.141 11.6181 14.891 11.8281 14.531 11.9281C13.471 12.2681 12.321 12.6781 11.121 13.0481C9.92102 13.4081 8.67103 13.7781 7.38103 14.1081C6.53103 14.3181 5.67102 14.5081 4.67102 14.6081C4.50102 14.6181 3.95103 14.6681 3.57103 14.6181C3.36103 14.6081 3.16102 14.5881 2.97102 14.5381C2.77102 14.5081 2.59103 14.4381 2.41103 14.3681C1.68103 14.0881 1.15102 13.4381 0.981018 12.6881L0.861023 12.0081C0.811023 11.7781 0.811016 11.5581 0.791016 11.4481H0.851028V11.3781Z" fill="#231F20"/>
<path d="M12.4107 19.8479C12.1507 20.4679 11.9207 20.9179 11.2107 21.4779C10.9607 21.6679 10.4807 21.9179 9.9807 21.8179C9.5807 21.7479 9.26071 21.5179 9.07071 21.2679C8.89071 21.0279 8.8307 20.8179 8.7907 20.6479C8.7107 20.2879 8.7107 19.9479 8.7607 19.6379C8.8007 19.3579 8.84071 19.0979 8.91071 18.8479C9.00071 18.5279 9.1407 18.1779 9.4707 18.0279C9.5807 17.9779 9.7407 18.1679 9.9007 18.3879C10.0607 18.6079 10.2607 18.8479 10.2607 18.9379C10.2607 19.2879 10.3807 19.5179 10.3407 19.7779C10.3407 19.8179 10.3407 19.8579 10.3607 19.8779C10.3607 19.8979 10.3907 19.8779 10.3607 19.8979C10.2807 19.9579 10.2207 20.0179 10.1707 20.0679C10.1307 20.1179 10.1007 20.1579 10.0807 20.1779V20.1979H10.0707L10.1207 20.0979C10.1107 20.1179 10.1007 20.1379 10.1007 20.1579C10.0807 20.2379 10.1007 20.2579 10.0807 20.1979C10.0707 20.1579 10.0007 20.0179 9.88071 19.8979C9.68071 19.7179 9.7807 19.7979 9.7907 19.7579C9.8407 19.7179 9.91071 19.6279 9.96071 19.5279C10.0207 19.4379 10.0807 19.2279 10.1107 19.0679C10.1307 18.9479 10.1407 18.8479 10.1407 18.7879C10.1407 18.7579 10.1407 18.7479 10.1407 18.7379L10.3907 18.4679C10.3907 18.4479 10.3307 18.5879 10.3507 18.6879C10.3507 18.7979 10.3907 18.7879 10.3107 18.6679C10.2707 18.6179 10.2207 18.5579 10.1707 18.5179C10.0607 18.4479 10.0407 18.4679 10.0607 18.4679C10.0707 18.4679 10.1107 18.4579 10.1307 18.4379C10.0307 18.4879 9.8507 18.5979 9.7207 18.6879C9.4807 18.8479 9.2507 18.9879 9.0007 18.9379C8.7607 18.9179 8.4707 18.6179 8.4707 18.1479C8.5007 17.4579 8.8407 17.0279 9.1407 16.7479C9.4607 16.4779 9.8207 16.2879 10.2907 16.2479C10.7407 16.1979 11.3807 16.3279 11.8907 16.7779C12.2407 17.0879 12.4407 17.4279 12.5707 17.7779C12.8907 18.8179 12.6207 19.3479 12.5107 19.8079H12.4507L12.4107 19.8479Z" fill="#231F20"/>
</g>
<defs>
<clipPath id="clip0_34_58">
<rect width="22" height="29" fill="white"/>
</clipPath>
</defs>
</svg>
