<svg width="24" height="21" viewBox="0 0 24 21" fill="none" xmlns="http://www.w3.org/2000/svg">
<g clip-path="url(#clip0_34_52)">
<path d="M14.2879 10.7707C13.1838 12.1389 12.1848 13.5886 11.2992 15.1075C10.9813 15.6671 10.7396 16.2648 10.4344 16.8371L10.002 17.6002L9.36608 18.872C9.17398 19.2832 8.91145 19.6577 8.59031 19.9784C8.27236 20.1946 8.08159 20.538 7.59831 20.5507C7.17301 20.5842 6.74543 20.5267 6.34411 20.382C5.94278 20.2372 5.57692 20.0086 5.27092 19.7113C4.65384 19.1723 4.10313 18.5618 3.63034 17.8927L1.81166 15.1965C1.01108 14.0765 0.404855 12.8297 0.0184308 11.5083C-0.0960301 11.0886 0.336379 10.936 0.934119 11.0123C1.66056 11.0914 2.34036 11.409 2.86726 11.9153C3.7218 12.9073 4.52409 13.943 5.27092 15.0184L5.84324 15.7815L6.09757 16.1503C6.17357 16.2419 6.24165 16.3397 6.30106 16.4428C6.31092 16.628 6.37756 16.8056 6.49186 16.9516C6.56817 17.0787 6.75891 17.1932 6.8225 17.0787C6.90577 16.9835 6.97436 16.8763 7.02599 16.7608L7.35667 16.0232C7.53472 15.6289 7.72547 15.2346 7.92895 14.8658C8.82543 13.1763 9.84121 11.5527 10.9685 10.0076C11.6553 9.05376 12.393 8.13806 13.1687 7.24781C14.3584 5.89645 15.6328 4.6221 16.9841 3.43245C17.9838 2.47191 19.0506 1.58366 20.1763 0.774417C20.4091 0.575299 20.6707 0.412383 20.9521 0.291141C21.3346 0.0628344 21.7808 -0.0353369 22.2239 0.0113458C22.5213 0.107632 22.7916 0.27328 23.0124 0.494622C23.1141 0.596365 23.2286 0.672671 23.3049 0.761696C23.3543 0.862662 23.38 0.973595 23.38 1.08601C23.38 1.19842 23.3543 1.30934 23.3049 1.41031C23.2335 1.76793 23.0562 2.09582 22.7962 2.35143C21.2191 4.09378 19.4386 5.34014 17.798 6.96803C16.558 8.1468 15.414 9.42264 14.3769 10.7834L14.2879 10.7707Z" fill="#231F20"/>
</g>
<defs>
<clipPath id="clip0_34_52">
<rect width="24" height="21" fill="white"/>
</clipPath>
</defs>
</svg>
