<svg width="462" height="350" viewBox="0 0 462 350" fill="none" xmlns="http://www.w3.org/2000/svg">
<path d="M161.37 239.55C156.88 224.75 149.37 223.08 149.37 223.08C149.37 223.08 106.88 242.54 105.37 260.2C104.12 274.83 173.09 273.88 179.27 276.96C179.27 276.96 172.85 255.59 167.35 253.41C163.46 251.87 145.48 251.06 151 246C154.127 243.359 157.62 241.187 161.37 239.55Z" fill="#221F1F"/>
<path d="M354.581 161.92C351.161 174.61 313.221 205.58 313.581 206.71C317.131 218.03 333.111 221.09 333.111 221.09C352.371 207.96 368.761 192.92 382.901 174.15C391.981 162.09 408.981 131.78 385.951 124.32C367.111 118.21 317.621 137.8 317.621 137.8C317.621 137.8 331.361 147.19 334.071 158.89C338.681 157.94 356.651 154.22 354.581 161.92Z" fill="#221F1F"/>
<path d="M265.11 293.76C267.24 292.49 268.24 288.52 269.11 286.4C270.69 282.48 272.04 278.45 273.71 274.57C274.01 273.86 271.85 274.1 271.53 274.83C270.21 277.91 269.11 281.08 267.9 284.21C267.24 285.92 266.57 287.63 265.83 289.31C265.44 290.18 264.69 292.52 263.76 293.08C262.5 293.83 264.39 294.19 265.12 293.76H265.11Z" fill="#221F1F"/>
<path d="M242.6 277.62C245.36 276.13 248.1 274.62 250.79 272.97C253.48 271.32 257.61 269.49 259.43 266.7C260.53 265.01 256.17 265.37 255.38 266.59C253.73 269.11 249.44 270.86 246.92 272.34C244.6 273.673 242.266 275.007 239.92 276.34C239.14 276.76 238.84 277.48 239.55 278.06C240.26 278.64 241.94 278.06 242.63 277.66L242.6 277.62Z" fill="#221F1F"/>
<path d="M255 291L263.77 277C264.36 276.07 262.16 276.17 261.77 276.86L252.94 290.81C252.36 291.73 254.56 291.63 254.99 290.94L255 291Z" fill="#221F1F"/>
<path d="M173.491 129.63C175.127 133.208 177.002 136.672 179.101 140C179.901 141.18 180.741 142.34 181.581 143.5C183.021 145.56 184.581 147.58 186.171 149.5C187.798 151.418 189.556 153.223 191.431 154.9C193.109 156.377 194.905 157.715 196.801 158.9C199.201 160.44 201.801 161.65 204.201 163.19C204.951 163.67 204.511 164.38 203.471 164.76C202.776 164.992 202.04 165.077 201.31 165.01C200.58 164.943 199.872 164.725 199.231 164.37C193.801 161.415 188.974 157.466 185.001 152.73C182.641 149.88 180.211 147.02 178.051 143.97C175.721 140.607 173.636 137.081 171.811 133.42C171.231 132.3 170.721 131.15 170.171 130.03L168.671 126.59C167.181 123.1 165.951 119.5 164.671 115.97C163.671 113.22 162.671 110.55 161.671 107.83C161.471 107.23 161.241 106.65 161.051 106.04C160.361 103.77 160.381 103.04 161.051 102.28C161.192 102.105 161.35 101.944 161.521 101.8C162.101 101.41 162.881 102.2 163.521 103.8C165.431 108.56 167.051 113.64 168.901 118.64C170.271 122.35 171.731 126.04 173.451 129.64L173.491 129.63Z" fill="#221F1F"/>
<path d="M245 125.88C244.53 122.31 244 118.73 243.33 115.17C243.09 113.86 242.77 112.58 242.53 111.28L240 97.4698C239.61 95.4698 239.15 93.3898 238.7 91.3698C237.988 88.7805 237.559 86.1216 237.42 83.4398C237.42 81.7698 240.75 83.4998 241.23 86.4398C242.16 91.6598 243.23 96.9398 243.97 102.35C244.42 105.59 245.29 108.87 245.92 112.15C246.587 115.77 247.21 119.4 247.79 123.04C248.12 125.29 248.43 127.54 248.68 129.8C249.11 133.21 249.33 136.67 249.53 140.09C249.64 142.76 249.89 145.38 249.76 148.09C249.76 148.68 249.76 149.26 249.71 149.86C249.39 152.06 249.05 152.73 248.14 153.01C247.94 153.089 247.732 153.146 247.52 153.18C246.84 153.18 246.45 152.27 246.52 150.76C246.65 146.091 246.54 141.418 246.19 136.76C245.99 134.97 245.87 133.18 245.65 131.39C245.43 129.6 245.24 127.79 244.94 125.99L245 125.88Z" fill="#221F1F"/>
<path d="M267.16 75.2197C239.55 94.5598 175.29 73.9497 175.29 73.9497C175.29 73.9497 163.16 82.2197 159.18 92.7797L162.76 106.25C162.76 106.25 130.47 98.6097 127.57 71.9197C122.89 28.7297 177.89 38.0197 178.45 37.5997C274.57 -34.3303 293.63 56.6797 267.16 75.2197Z" fill="#221F1F"/>
<path d="M174.801 39.3398C169.621 38.885 164.411 38.885 159.231 39.3398C156.665 39.5795 154.117 39.9769 151.601 40.5298C149.123 41.1005 146.697 41.88 144.351 42.8598C142.054 43.8486 139.89 45.1219 137.911 46.6498C135.949 48.1605 134.259 49.9932 132.911 52.0698C131.557 54.1489 130.544 56.431 129.911 58.8298C129.603 60.0444 129.369 61.2767 129.211 62.5198L128.991 64.3998C128.991 65.0398 128.991 65.6798 128.941 66.3098C128.881 67.2389 128.881 68.1708 128.941 69.0998C129.011 70.0298 129.061 70.9698 129.141 71.8998C129.359 73.7286 129.734 75.5352 130.261 77.2998C130.773 79.0595 131.443 80.7697 132.261 82.4098C133.102 84.0474 134.072 85.6156 135.161 87.0998C138.806 91.8395 143.379 95.7865 148.601 98.6998C151.19 100.221 153.884 101.557 156.661 102.7C157.361 102.98 158.061 103.25 158.761 103.51L159.891 103.91C160.141 104 160.401 104.08 160.661 104.15C160.638 103.905 160.587 103.663 160.511 103.43L158.511 95.6098L157.841 93.0498L157.781 92.8298V92.7198V92.6098L157.971 92.1798L158.291 91.4298L158.781 90.3198C159.151 89.6098 159.531 88.8998 159.921 88.1998C160.311 87.4998 160.761 86.8298 161.211 86.1998C163.024 83.6134 165.087 81.2119 167.371 79.0298C168.491 77.9298 169.657 76.8798 170.871 75.8798C171.471 75.3798 172.081 74.8898 172.701 74.4098L173.641 73.6998C174.111 73.3498 174.641 72.9998 175.091 72.6998L177.611 73.4798L179.561 74.0598L183.501 75.1598C195.134 78.2905 207.009 80.4447 219.001 81.5998C226.626 82.3512 234.305 82.4081 241.941 81.7698C245.724 81.4492 249.476 80.8273 253.161 79.9098C256.821 79.0382 260.363 77.7288 263.711 76.0098C267.711 73.6598 267.711 74.5798 264.641 77.4798C263.654 78.2687 262.622 79 261.551 79.6698C260.136 80.5177 258.658 81.2565 257.131 81.8798C253.285 83.4391 249.25 84.4815 245.131 84.9798C239.176 85.6571 233.177 85.8511 227.191 85.5598C221.246 85.3032 215.321 84.719 209.441 83.8098C203.561 82.9298 197.731 81.8198 191.951 80.4798C189.061 79.8098 186.171 79.0998 183.301 78.3198C181.867 77.9398 180.437 77.5398 179.011 77.1198L176.861 76.4798L175.791 76.1498L175.641 76.0998H175.571L175.281 76.3098L174.121 77.1998C173.351 77.7998 172.591 78.4298 171.851 79.0698C170.367 80.3542 168.948 81.7125 167.601 83.1398C164.897 85.9079 162.685 89.1174 161.061 92.6298C161.011 92.7498 160.961 92.7898 160.961 92.8698V92.9798L161.031 93.2598L161.471 94.9898C161.761 96.1498 162.061 97.3098 162.351 98.4698L163.251 101.97L164.031 104.97C164.261 105.97 164.441 106.84 164.651 107.77L164.721 108.12V108.29H164.541L163.831 108.11L162.431 107.75C161.501 107.51 160.511 107.23 159.571 106.92L158.211 106.47L157.331 106.15L155.591 105.48C153.276 104.553 151.012 103.501 148.811 102.33C144.347 99.9846 140.248 97.0035 136.641 93.4798C134.834 91.6939 133.203 89.7382 131.771 87.6398C130.348 85.5238 129.164 83.2567 128.241 80.8798C127.227 78.2742 126.554 75.5482 126.241 72.7698C126.041 71.3898 126.031 70.0198 125.911 68.6498C125.791 67.2798 125.911 65.8798 125.911 64.4998C125.961 63.8098 126.061 63.1098 126.131 62.4198C126.191 61.7246 126.291 61.0335 126.431 60.3498C126.686 58.9696 127.041 57.6094 127.491 56.2798C127.928 54.9395 128.47 53.6355 129.111 52.3798C129.421 51.7498 129.831 51.1698 130.191 50.5598L130.751 49.6598L131.401 48.8198C131.817 48.2489 132.264 47.7014 132.741 47.1798L134.221 45.6598C135.262 44.7179 136.364 43.846 137.521 43.0498C139.819 41.4812 142.305 40.2079 144.921 39.2598C150.097 37.4074 155.512 36.3095 161.001 35.9998C164.001 35.7998 167.001 35.7698 170.001 35.8698C171.501 35.9298 173.001 36.0098 174.491 36.1198L176.721 36.3098L177.721 36.3998C177.901 36.3998 178.091 36.4598 178.221 36.3098L182.481 33.2298L186.981 30.1298C189.981 28.1298 193.081 26.1298 196.221 24.3098C204.836 19.0575 214.083 14.9211 223.741 11.9998C228.598 10.57 233.605 9.70763 238.661 9.42983C243.728 9.14963 248.805 9.76228 253.661 11.2398C257.428 12.4346 260.965 14.2605 264.121 16.6398C267.241 19.029 269.944 21.918 272.121 25.1898C276.419 31.7563 278.887 39.3509 279.271 47.1898C279.475 50.6303 279.284 54.0829 278.701 57.4798C277.998 62.0717 276.25 66.4408 273.591 70.2498C272.41 71.968 270.8 73.3471 268.921 74.2498C268.362 74.5348 267.771 74.7529 267.161 74.8998C266.831 74.9498 266.821 74.7598 267.081 74.3798C267.341 73.9998 267.881 73.3798 268.581 72.5998C270.706 70.0734 272.395 67.2109 273.581 64.1298C275.839 57.8549 276.586 51.1362 275.763 44.5183C274.939 37.9005 272.568 31.5699 268.841 26.0398C264.987 20.5206 259.451 16.3954 253.061 14.2798C246.493 12.2877 239.545 11.8866 232.791 13.1098C223.201 14.6398 213.901 18.3398 205.121 22.9098C200.721 25.2098 196.431 27.7398 192.221 30.4098C190.141 31.7798 188.051 33.1398 186.011 34.5798C185.011 35.2898 183.951 35.9898 182.951 36.7398L179.621 39.1598L179.211 39.3598L179.011 39.4498H178.961C178.961 39.5498 178.961 39.3198 178.961 39.3398H178.911H178.801C178.509 39.4098 178.211 39.4533 177.911 39.4698C177.758 39.4897 177.603 39.4897 177.451 39.4698H177.161H176.671L174.761 39.3098L174.801 39.3398Z" fill="#221F1F"/>
<path d="M242.371 89.5997C243.215 87.6847 244.425 85.9524 245.931 84.4997C249.871 81.2497 252.231 85.2997 252.931 88.7997C254.101 94.3297 252.441 102.71 246.931 105.49C244.861 106.49 248.011 106.83 249.031 106.31C256.031 102.73 259.751 89.9897 254.511 83.5497C249.051 76.8397 241.381 84.9597 238.831 90.0997C238.421 90.9297 241.831 90.6197 242.291 89.5997H242.371Z" fill="#221F1F"/>
<path d="M163.781 122.55C154.781 122.55 138.941 109.89 151.541 102.88C153.611 101.73 151.721 100.11 150.051 101.04C143.921 104.45 140.621 109.9 145.631 116.04C149.411 120.64 156.411 124.95 162.531 124.95C164.081 124.95 166.131 122.6 163.781 122.6V122.55Z" fill="#221F1F"/>
<path d="M184.221 281.13C171.441 255.68 159.421 229.92 146.221 204.79C143.841 200.19 141.341 195.66 138.851 191.13L134.451 183.32L133.611 181.83L133.191 181.08C133.448 180.978 133.712 180.898 133.981 180.84L137.281 179.93L141.491 178.79L247.381 150.2C263.031 145.95 278.741 141.59 294.241 137.26L307.581 133.53L309.681 137.08L311.241 139.75C312.241 141.54 313.241 143.34 314.241 145.15C316.241 148.76 318.141 152.42 319.991 156.1C323.701 163.46 327.151 170.95 330.391 178.49C332.931 184.42 331.761 183.99 328.731 179.38C325.701 174.77 320.791 166 315.391 155.46C313.731 152.22 312.025 149.003 310.271 145.81C309.391 144.22 308.511 142.62 307.611 141.05C306.811 139.64 305.371 137.19 305.781 137.89L257.001 151.17C240.135 155.723 223.198 160.24 206.191 164.72C193.881 167.96 181.351 171.37 168.761 174.83L149.831 180L140.381 182.6L138.871 183.01L138.491 183.11C138.491 183.11 138.311 183.11 138.351 183.19L138.441 183.36L140.061 186.25C154.061 211.33 166.361 237.25 179.011 262.92C186.811 278.72 194.681 294.48 203.171 309.92L205.581 314.29L208.061 318.64L209.291 320.81L209.841 321.81C209.943 322.007 210.056 322.197 210.181 322.38C210.403 322.398 210.625 322.381 210.841 322.33L211.841 322.14L214.241 321.57C220.681 319.95 227.081 318.03 233.451 316.08C246.191 312.15 258.831 307.93 271.331 303.57C290.761 296.78 309.621 289.57 328.571 282.2L341.001 277.25C356.591 271.13 361.611 269.34 365.301 268.88C366.109 268.735 366.923 268.635 367.741 268.58C369.501 268.65 363.381 271.76 352.031 276.44C318.341 290.3 282.361 303.81 245.641 315.78C238.821 317.99 231.971 320.14 225.061 322.16C221.601 323.16 218.131 324.16 214.581 325.02C213.691 325.24 212.801 325.45 211.861 325.63C211.67 325.677 211.477 325.713 211.281 325.74L210.621 325.85C210.203 325.899 209.78 325.899 209.361 325.85C209.168 325.814 208.984 325.739 208.821 325.63L208.581 325.45C208.581 325.51 208.641 325.29 208.471 325.58H208.421L208.321 325.48C208.041 325.19 207.741 324.96 207.481 324.64L204.481 319.34C197.371 306.82 190.701 294.06 184.211 281.24L184.221 281.13Z" fill="#221F1F"/>
<path d="M312.58 295.78C304.53 298.48 296.44 301.09 288.35 303.68C285.35 304.62 282.47 305.68 279.52 306.56C269.08 309.78 258.6 312.85 248.13 315.91C243.48 317.25 238.83 318.7 234.24 320.13C228.35 321.98 222.48 323.97 216.48 325.39C212.73 326.28 216.48 321.66 223.24 319.6C235.3 315.95 247.38 312.47 259.63 309.13C266.96 307.13 274.44 304.59 281.84 302.23C289.98 299.65 298.1 297.01 306.2 294.31C311.2 292.67 316.2 290.94 321.13 289.23L332.39 285.23C336.14 283.88 339.85 282.47 343.54 281.07C349.28 278.86 354.79 276.44 360.38 274.07C361.61 273.54 362.8 273 364.04 272.48C368.66 270.56 370.22 270.19 371.56 270.65C371.872 270.718 372.175 270.825 372.46 270.97C373.18 271.45 371.51 272.76 368.18 274.32C365.72 275.48 363.213 276.623 360.66 277.75C358.107 278.876 355.51 279.96 352.87 281C347.64 283.18 342.25 285.19 336.87 287.22C328.87 290.22 320.74 293.04 312.63 295.84L312.58 295.78Z" fill="#221F1F"/>
<path d="M222.57 171C227.69 169.71 232.82 168.44 237.93 167.13C239.8 166.66 241.64 166.13 243.5 165.62C250.09 163.98 256.69 162.4 263.27 160.73C266.18 160 269.09 159.16 271.96 158.31C275.606 157.097 279.319 156.095 283.08 155.31C285.45 154.9 283.41 158.93 279.16 160.14C271.62 162.28 264.03 164.21 256.29 165.85C251.65 166.85 246.95 168.28 242.29 169.49C237.15 170.823 232 172.157 226.84 173.49C223.67 174.3 220.5 175.11 217.34 175.94C212.55 177.2 207.72 178.42 202.99 179.77C199.32 180.77 195.77 182.05 192.17 183.2C191.37 183.45 190.61 183.73 189.8 183.97C186.8 184.85 185.8 184.89 184.91 184.18C184.699 184.031 184.502 183.864 184.32 183.68C183.84 183.07 184.91 182.17 187.05 181.36C193.39 178.96 200.24 176.99 207.13 175.08C212.25 173.67 217.42 172.34 222.57 170.97C222.56 170.94 222.56 171 222.57 171Z" fill="#221F1F"/>
<path d="M356.63 234.49C357.63 236.83 358.72 239.17 359.82 241.49C360.22 242.34 360.71 243.14 361.11 243.98C362.51 246.98 363.91 249.98 365.43 252.89C366.09 254.2 366.86 255.45 367.64 256.68C368.744 258.194 369.698 259.811 370.49 261.51C370.91 262.61 367.49 262.98 366.35 261.12C364.279 257.847 362.489 254.405 361 250.83C360.1 248.68 358.85 246.62 357.8 244.49C356.65 242.15 355.56 239.79 354.47 237.42L352.47 233.05C351.47 230.85 350.47 228.61 349.42 226.46C348.6 224.78 347.62 223.22 346.72 221.6C346.52 221.24 346.3 220.91 346.11 220.54C345.43 219.18 345.43 218.65 346.11 218C346.246 217.843 346.393 217.696 346.55 217.56C347.09 217.16 347.85 217.49 348.48 218.42C350.355 221.287 352.003 224.296 353.41 227.42L356.7 234.42L356.63 234.49Z" fill="#221F1F"/>
<path d="M137.491 291L155.371 299C157.541 300 159.761 300.84 161.931 301.81L184.931 312.14C188.331 313.65 191.791 315.08 195.211 316.47C199.601 318.26 204.091 319.89 208.311 322.08C210.941 323.45 206.181 325.08 201.131 322.96C192.191 319.23 183.331 315.31 174.521 311.05C169.261 308.51 163.601 306.27 158.131 303.87L140.131 295.87L129.021 290.98C123.411 288.53 117.781 286.03 112.171 283.7L101.691 279.49L109.691 275.93C110.621 275.5 111.521 275.05 112.471 274.63C116.001 273.09 117.221 272.83 118.341 273.37C118.6 273.467 118.848 273.591 119.081 273.74C119.701 274.26 118.481 275.41 115.971 276.69C114.331 277.523 112.665 278.343 110.971 279.15C110.691 279.36 110.661 279.45 110.661 279.51H110.991H111.001L112.571 280.15L119.421 283.03C125.471 285.59 131.511 288.25 137.551 290.86L137.491 291Z" fill="#221F1F"/>
<path d="M145.761 297.7C150.715 299.746 155.665 301.79 160.611 303.83C162.421 304.57 164.261 305.22 166.061 305.97C172.421 308.61 178.761 311.3 185.131 313.92C187.951 315.08 190.831 316.16 193.671 317.2C197.379 318.415 201.015 319.841 204.561 321.47C206.741 322.56 202.661 324.57 198.461 322.99C191.031 320.17 183.671 317.16 176.371 313.82C172.001 311.82 167.291 310.16 162.751 308.32C157.751 306.32 152.751 304.25 147.751 302.21C144.681 300.96 141.611 299.7 138.531 298.47C133.861 296.6 129.191 294.68 124.531 292.92C120.901 291.55 117.271 290.41 113.641 289.16C112.841 288.89 112.051 288.65 111.251 288.36C108.251 287.28 107.431 286.7 107.131 285.59C107.042 285.347 106.979 285.096 106.941 284.84C106.941 284.06 108.331 283.97 110.561 284.61C117.181 286.51 123.951 289.03 130.721 291.61C135.721 293.55 140.721 295.61 145.791 297.61L145.761 297.7Z" fill="#221F1F"/>
<path d="M397.181 158.73C395.791 162.256 394.119 165.663 392.181 168.92C390.222 172.123 388.085 175.215 385.781 178.18C381.159 184.027 376.126 189.538 370.721 194.67C366.821 198.43 362.831 202.1 358.721 205.57C351.421 211.7 343.831 217.45 336.141 223.02C334.211 224.4 332.341 225.84 330.231 227.13C328.121 228.42 326.081 229.53 324.001 230.68C319.841 232.96 315.701 235.23 311.661 237.68C304.452 241.871 297.768 246.907 291.751 252.68C289.881 254.536 288.144 256.521 286.551 258.62C286.141 259.127 285.758 259.654 285.401 260.2C285.031 260.75 284.651 261.28 284.291 261.83C283.631 262.95 282.921 264.05 282.371 265.23C281.821 266.41 281.271 267.59 280.751 268.77C280.521 269.38 280.331 270 280.121 270.61C280.021 270.92 279.901 271.22 279.811 271.53L279.581 272.47C278.913 274.971 278.547 277.542 278.491 280.13C278.491 283.34 277.731 283.07 276.901 280.2C276.666 279.343 276.515 278.466 276.451 277.58C276.35 276.425 276.35 275.264 276.451 274.11C276.67 271.166 277.412 268.284 278.641 265.6C281.076 260.424 284.392 255.711 288.441 251.67C289.441 250.67 290.441 249.67 291.441 248.72C292.441 247.77 293.531 246.84 294.621 245.97C296.771 244.17 299.021 242.52 301.301 240.91C305.871 237.72 310.631 234.86 315.461 232.16C317.871 230.81 320.311 229.51 322.721 228.16C325.131 226.81 327.571 225.56 329.821 224.16L330.821 223.51L331.821 222.79L333.821 221.35L337.871 218.41C340.561 216.41 343.251 214.41 345.871 212.31C351.191 208.15 356.421 203.82 361.451 199.37C367.006 194.512 372.281 189.344 377.251 183.89C379.721 181.15 382.101 178.34 384.251 175.4C386.482 172.486 388.52 169.43 390.351 166.25C392.63 162.384 394.426 158.253 395.701 153.95C396.973 149.683 397.384 145.207 396.911 140.78C396.781 139.95 396.731 139.11 396.531 138.3L395.931 135.86C395.691 135.06 395.361 134.28 395.081 133.49C394.921 133.11 394.811 132.68 394.621 132.33L394.061 131.26C393.251 129.857 392.17 128.63 390.881 127.65L390.411 127.27L389.891 126.95C389.541 126.74 389.201 126.51 388.841 126.31C388.109 125.93 387.355 125.596 386.581 125.31C383.399 124.204 380.06 123.613 376.691 123.56C373.289 123.47 369.885 123.651 366.511 124.1C356.001 125.45 346.001 128.49 336.111 132C333.931 132.79 331.831 133.61 329.651 134.45C325.651 136 322.981 137.08 321.081 137.72C319.783 138.232 318.414 138.539 317.021 138.63C316.572 138.665 316.121 138.665 315.671 138.63C314.671 138.43 317.671 136.46 323.541 133.88C332.455 129.952 341.659 126.719 351.071 124.21C355.932 122.911 360.868 121.909 365.851 121.21C370.968 120.482 376.156 120.405 381.291 120.98C382.291 121.11 383.231 121.3 384.201 121.5C385.18 121.718 386.145 121.996 387.091 122.33C389.059 122.981 390.909 123.943 392.571 125.18C394.291 126.46 395.716 128.093 396.751 129.97C396.991 130.44 397.251 130.91 397.471 131.38L397.991 132.78C398.367 133.697 398.678 134.639 398.921 135.6C399.141 136.6 399.451 137.51 399.591 138.49L399.991 141.49L400.091 144.49C400.091 145.49 399.981 146.49 399.931 147.43C399.533 151.309 398.636 155.121 397.261 158.77L397.181 158.73Z" fill="#221F1F"/>
<path d="M339.37 162.65C343.59 161.55 348.44 161.34 352.48 163.09C353.88 163.69 358.65 161.59 356.68 160.74C351.17 158.36 344.46 158.89 338.76 160.38C335.67 161.19 336.25 163.47 339.37 162.65Z" fill="#221F1F"/>
<path d="M279.721 229.6C286.808 224.187 293.808 218.667 300.721 213.04C303.241 210.98 305.721 208.85 308.191 206.76C317.011 199.42 325.701 191.92 333.971 183.99C337.631 180.46 341.171 176.77 344.461 172.99L346.031 171.15L347.541 169.26C348.541 168.02 349.491 166.71 350.451 165.42C352.326 162.906 353.919 160.193 355.201 157.33C355.831 155.61 356.541 155.86 356.721 157.79C356.721 158.03 356.721 158.29 356.721 158.59C356.701 158.888 356.665 159.186 356.611 159.48C356.5 160.197 356.34 160.905 356.131 161.6C355.861 162.32 355.541 163.11 355.131 163.92C354.7 164.745 354.22 165.544 353.691 166.31C351.746 169.098 349.639 171.769 347.381 174.31C346.271 175.58 345.141 176.83 343.991 178.04C342.841 179.25 341.671 180.47 340.491 181.66C335.761 186.42 330.821 190.94 325.731 195.33C319.651 200.58 313.441 206.17 307.131 211.42C300.191 217.18 293.154 222.823 286.021 228.35C281.634 231.763 277.214 235.123 272.761 238.43C271.061 239.68 269.371 240.93 267.641 242.15C266.758 242.789 265.844 243.383 264.901 243.93C263.868 244.454 262.751 244.793 261.601 244.93C259.413 245.136 257.207 245.001 255.061 244.53C252.971 244.13 250.931 243.59 248.921 243.13C247.551 242.796 246.161 242.546 244.761 242.38C244.097 242.309 243.428 242.292 242.761 242.33H242.391L242.121 242.38C241.946 242.413 241.776 242.463 241.611 242.53C241.41 242.601 241.229 242.717 241.081 242.87C241.021 242.962 240.997 243.073 241.014 243.182C241.031 243.291 241.086 243.39 241.171 243.46C241.478 243.761 241.837 244.005 242.231 244.18C243.753 244.961 245.323 245.646 246.931 246.23C248.231 246.72 249.521 247.14 250.851 247.59C255.851 249.22 257.341 249.76 258.241 250.79C258.441 251.02 258.731 251.26 258.861 251.45C259.101 251.79 258.591 252.02 257.571 252C256.073 251.916 254.59 251.661 253.151 251.24C250.2 250.47 247.295 249.532 244.451 248.43C243.731 248.14 243.001 247.83 242.271 247.5C241.911 247.33 241.541 247.15 241.181 246.96C240.981 246.86 240.841 246.79 240.601 246.65C240.282 246.473 239.975 246.276 239.681 246.06C239.401 245.85 239.091 245.65 238.831 245.43L238.131 244.73C237.774 244.286 237.534 243.76 237.431 243.2C237.345 242.624 237.454 242.036 237.741 241.53C237.89 241.293 238.076 241.08 238.291 240.9C238.5 240.687 238.735 240.502 238.991 240.35C239.569 240.052 240.18 239.82 240.811 239.66L241.811 239.47C241.979 239.439 242.15 239.423 242.321 239.42H242.661C243.485 239.384 244.311 239.414 245.131 239.51C246.652 239.701 248.161 239.978 249.651 240.34C252.394 241.074 255.179 241.641 257.991 242.04C259.842 242.342 261.74 242.106 263.461 241.36C264.351 240.837 265.212 240.266 266.041 239.65L268.761 237.65C272.381 235 275.971 232.28 279.531 229.53L279.721 229.6Z" fill="#221F1F"/>
<path d="M263.341 270.83C263.231 275.01 262.341 279.07 261.751 283.2C261.371 286.06 260.681 289.75 261.651 292.54C262.311 294.44 263.961 294.54 265.471 293.03C267.661 290.88 268.471 286.15 269.381 283.38C270.441 280.18 271.131 276.07 273.051 273.24C273.321 272.84 270.681 272.97 270.181 273.71C267.121 278.22 266.381 284.86 264.391 289.91C263.868 290.88 263.407 291.882 263.011 292.91C265.501 296.62 264.541 290.14 264.431 291.15C264.571 289.96 264.191 288.56 264.211 287.32C264.311 281.51 266.081 275.86 266.211 270.04C266.211 269.48 263.341 269.89 263.311 270.81L263.341 270.83Z" fill="#221F1F"/>
<path d="M255.781 269.85L256.781 267.45L256.991 267.09C257.08 266.939 257.157 266.782 257.221 266.62C257.095 266.662 256.972 266.712 256.851 266.77L256.581 266.91L256.401 267L256.301 267.06L255.991 267.24L252.991 269.08C251.061 270.26 249.161 271.5 247.201 272.64C245.461 273.64 243.711 274.64 241.901 275.55L240.531 276.23L239.721 276.61L238.591 277.1C237.341 277.705 235.979 278.046 234.591 278.1C234.392 278.088 234.194 278.055 234.001 278C233.764 277.954 233.532 277.88 233.311 277.78C233.065 277.669 232.849 277.501 232.681 277.29C232.524 277.064 232.44 276.795 232.441 276.52C232.573 275.434 233.07 274.425 233.851 273.66C234.345 273.098 234.873 272.567 235.431 272.07C235.991 271.56 236.681 270.98 236.971 270.73L239.311 268.84C242.091 266.64 244.861 264.42 247.501 262.16C249.201 260.7 250.851 259.16 252.441 257.65C254.006 256.199 255.435 254.609 256.711 252.9C257.041 252.39 257.301 252.23 257.581 252.34C257.861 252.45 258.101 252.9 258.121 253.64C258.191 255.13 257.191 257.51 255.271 259.39C251.89 262.592 248.328 265.597 244.601 268.39C242.781 269.8 240.961 271.2 239.191 272.61L238.531 273.14L238.441 273.21H238.381L238.101 273.38C237.82 273.546 237.591 273.789 237.441 274.08C237.441 274.28 237.641 274.3 237.781 274.29C237.966 274.275 238.148 274.234 238.321 274.17C238.527 274.104 238.727 274.023 238.921 273.93C239.441 273.68 240.131 273.34 240.721 273.02C243.181 271.71 245.611 270.22 248.021 268.77L252.801 265.85L255.391 264.27C256.631 263.5 257.951 262.72 259.161 262.05C259.699 261.814 260.275 261.682 260.861 261.66C261.091 261.66 261.271 261.66 261.461 261.66C261.651 261.66 261.611 261.73 261.641 261.79C261.646 261.836 261.646 261.883 261.641 261.93V262.22C261.641 262.43 261.641 262.63 261.641 262.91V263.31L261.531 263.84C261.424 264.273 261.267 264.693 261.061 265.09L260.481 266.43L259.021 269.82L257.901 272.46C257.168 274.226 256.468 276 255.801 277.78C255.431 278.78 255.071 279.78 254.721 280.78L254.221 282.29L253.801 283.63C253.631 284.19 253.471 284.77 253.341 285.37C253.195 285.968 253.158 286.588 253.231 287.2C253.254 287.307 253.298 287.409 253.361 287.5C253.383 287.549 253.424 287.589 253.474 287.609C253.525 287.63 253.581 287.63 253.631 287.61C253.824 287.499 253.991 287.349 254.121 287.17C254.389 286.821 254.636 286.457 254.861 286.08C255.201 285.52 255.511 284.95 255.781 284.42L257.241 281.6L260.241 275.67C260.691 274.8 261.121 273.94 261.601 273.07C263.411 269.86 264.261 268.98 265.341 268.75C265.579 268.679 265.824 268.632 266.071 268.61C266.771 268.67 266.341 270.14 265.141 272.49C263.461 275.823 261.751 279.196 260.011 282.61C259.561 283.47 259.101 284.33 258.641 285.19L257.501 287.25C257.011 288.08 256.501 288.91 256.031 289.66C255.604 290.33 255.115 290.959 254.571 291.54C254.224 291.921 253.798 292.222 253.321 292.42C252.987 292.548 252.628 292.599 252.271 292.57C252.164 292.56 252.06 292.533 251.961 292.49L251.761 292.39L251.661 292.34H251.611V292.41L251.261 292.22L250.981 292L250.581 291.46L250.401 291.21L250.261 290.89C249.936 289.963 249.844 288.971 249.991 288C249.991 287.67 250.041 287.38 250.101 287L250.301 285.93C250.421 285.23 250.651 284.46 250.831 283.72C250.931 283.36 251.031 282.98 251.141 282.61L251.321 282.04L251.681 280.89L252.451 278.63C253.521 275.63 254.691 272.71 255.891 269.81L255.781 269.85Z" fill="#221F1F"/>
<path d="M123.94 273.15C120.342 272.365 116.796 271.364 113.32 270.15C111.53 269.516 109.795 268.741 108.13 267.83C107.251 267.34 106.42 266.767 105.65 266.12C104.775 265.401 104.062 264.505 103.56 263.49C103.461 263.284 103.381 263.07 103.32 262.85C103.244 262.653 103.191 262.448 103.16 262.24L102.98 261.1C102.916 260.727 102.893 260.348 102.91 259.97C102.89 259.59 102.89 259.21 102.91 258.83C102.974 258.091 103.102 257.358 103.29 256.64L103.58 255.58L103.99 254.58C104.98 252.32 106.298 250.217 107.9 248.34C109.432 246.501 111.103 244.782 112.9 243.2C116.415 240.075 120.152 237.208 124.08 234.62C127.53 232.3 131.08 230.07 134.56 227.95C139.04 225.126 143.719 222.629 148.56 220.48C151.56 219.25 149.04 223.53 143.79 226.35C139.11 228.87 134.5 231.51 129.99 234.35C125.462 237.124 121.095 240.152 116.91 243.42C114.4 245.403 112.113 247.653 110.09 250.13C108.055 252.472 106.626 255.277 105.93 258.3C105.787 259.081 105.743 259.878 105.8 260.67L105.97 261.83C105.97 261.98 106.06 262.12 106.11 262.26C106.178 262.407 106.255 262.551 106.34 262.69C107.304 263.978 108.572 265.008 110.03 265.69C113.225 267.248 116.577 268.462 120.03 269.31C124.31 270.45 128.68 271.31 133.03 272.13C139.69 273.3 146.42 274.28 153.1 275.13C158.29 275.75 163.41 276.13 168.57 276.72C169.71 276.85 170.83 276.96 171.98 277.13C176.21 277.77 177.69 278.41 178.3 279.64C178.42 279.91 178.57 280.32 178.35 280.44C178.13 280.56 178.2 280.44 178.08 280.5C178.13 280.5 177.88 280.6 177.86 280.63C177.84 280.66 177.86 280.69 177.78 280.69H177.42C176.8 280.69 175.64 280.5 174.14 280.3C169.65 279.72 164.91 279.3 160.14 278.81C155.37 278.32 150.49 277.73 145.62 277.08C138.39 276.08 131.14 274.96 123.93 273.38L123.94 273.15Z" fill="#221F1F"/>
<path d="M371.241 248.36C396.495 247.487 421.745 246.57 446.991 245.61C450.161 245.49 451.571 241.55 447.601 241.7C422.355 242.7 397.101 243.617 371.841 244.45C368.671 244.56 367.271 248.45 371.241 248.36Z" fill="#221F1F"/>
<path d="M13.4405 261.78C40.7805 260.35 68.1305 259.23 95.4405 258.14C96.6205 258.09 99.1305 257.74 99.6505 256.43C100.17 255.12 99.2405 254.62 97.9605 254.68C70.6105 255.77 43.2605 256.89 15.9605 258.32C14.7805 258.38 12.2705 258.71 11.7505 260.03C11.2305 261.35 12.1605 261.85 13.4405 261.78Z" fill="#221F1F"/>
<path d="M306.21 237.37C306.174 237.388 306.135 237.398 306.095 237.398C306.055 237.398 306.016 237.388 305.98 237.37C304.403 236.647 302.897 235.78 301.48 234.78C300.09 233.781 298.819 232.627 297.69 231.34C296.557 230.043 295.571 228.624 294.75 227.11C293.89 225.58 293.2 223.97 292.39 222.22C292.357 222.14 292.357 222.05 292.39 221.97C292.395 221.954 292.395 221.936 292.39 221.92C292.32 221.78 291.39 222.07 290.39 222.56C289.39 223.05 288.57 223.56 288.63 223.69C288.671 223.695 288.711 223.709 288.745 223.732C288.78 223.754 288.809 223.784 288.83 223.82L289.2 224.62C290.592 228.123 292.567 231.365 295.04 234.21C296.341 235.622 297.786 236.896 299.35 238.01C300.912 239.088 302.565 240.029 304.29 240.82C304.325 240.845 304.354 240.876 304.376 240.912C304.398 240.948 304.413 240.988 304.42 241.03C304.57 241.1 305.06 240.3 305.52 239.26C305.886 238.688 306.121 238.043 306.21 237.37Z" fill="#232020"/>
<path d="M296.131 238.98C299.345 238.98 301.951 236.374 301.951 233.16C301.951 229.946 299.345 227.34 296.131 227.34C292.916 227.34 290.311 229.946 290.311 233.16C290.311 236.374 292.916 238.98 296.131 238.98Z" fill="#221F1F"/>
<path d="M334.171 225.75C323.631 225.85 311.221 221.39 307.331 210.54C307.051 209.76 303.621 210.81 303.851 211.47C307.911 222.79 320.961 227.23 331.911 227.13C332.621 227.13 335.821 225.73 334.171 225.75Z" fill="#221F1F"/>
<path d="M310.431 205.86C314.631 217.86 327.901 222.76 339.551 222.66C341.461 222.66 342.291 220.3 339.921 220.32C329.511 220.41 317.631 215.52 313.921 204.93C313.411 203.47 309.921 204.44 310.441 205.86H310.431Z" fill="#221F1F"/>
<path d="M162.52 242.13C160.87 242.74 159.23 243.41 157.63 244.13C156.03 244.85 153 246 152.2 247.64C150.84 250.56 163.39 251.3 165.29 251.41C166.375 251.472 167.451 251.184 168.36 250.59C168.93 250.11 169.08 249.83 168.14 249.77C166.47 249.66 155.81 248.92 156.48 246.82C156.84 245.67 159.73 244.73 160.7 244.29C161.67 243.85 162.87 243.35 163.97 242.94C164.38 242.79 165.67 242.4 165.3 241.82C164.93 241.24 162.85 242.01 162.52 242.13Z" fill="#221F1F"/>
<path d="M251.706 210.984C256.499 209.8 259.768 206.342 259.007 203.259C258.245 200.176 253.742 198.636 248.949 199.819C244.155 201.003 240.887 204.462 241.648 207.545C242.409 210.628 246.912 212.168 251.706 210.984Z" fill="#00CFC8"/>
<path d="M170.5 298.35C167.84 297.08 165.19 295.8 162.5 294.55C161.5 294.09 160.5 293.73 159.55 293.26C156.15 291.62 152.76 289.92 149.35 288.26C147.83 287.54 146.27 286.9 144.72 286.26C142.675 285.607 140.704 284.742 138.84 283.68C137.7 282.94 140.58 280.53 142.84 281.47C146.898 283.131 150.852 285.038 154.68 287.18C156.98 288.48 159.56 289.42 162.01 290.55C164.69 291.79 167.37 293.06 170.06 294.32C171.71 295.09 173.36 295.87 175.06 296.62C177.57 297.76 180.06 298.96 182.61 299.99C184.61 300.8 186.61 301.4 188.61 302.09C189.05 302.24 189.49 302.36 189.93 302.53C191.54 303.16 191.93 303.59 191.93 304.59C191.95 304.816 191.95 305.044 191.93 305.27C191.8 305.99 190.93 306.27 189.67 305.95C185.901 304.915 182.223 303.577 178.67 301.95C175.95 300.79 173.25 299.54 170.55 298.32L170.5 298.35Z" fill="#221F1F"/>
<path d="M182.51 110.29C182.41 110.51 182.15 110.4 181.74 110.08C181.565 109.921 181.431 109.722 181.35 109.5C181.375 109.332 181.419 109.168 181.48 109.01C181.893 108.575 182.342 108.173 182.82 107.81C183.146 107.547 183.51 107.335 183.9 107.18C184.675 106.834 185.473 106.543 186.29 106.31C186.475 106.259 186.667 106.232 186.86 106.23C187.511 106.204 188.16 106.127 188.8 106C188.91 105.994 189.017 105.96 189.11 105.9C189.452 105.792 189.81 105.738 190.17 105.74C190.539 105.711 190.91 105.711 191.28 105.74C191.85 105.93 192.41 106.04 192.94 106.26C193.02 106.26 193.11 106.26 193.16 106.37C193.21 106.48 193.47 106.58 193.63 106.64C193.858 106.716 194.079 106.813 194.29 106.93C194.394 107.017 194.482 107.122 194.55 107.24C194.63 107.34 194.49 107.61 194.45 107.63C194.41 107.65 194.37 107.85 194.34 107.97C194.31 108.09 194.34 108.07 194.34 108.1C193.86 108.222 193.372 108.309 192.88 108.36C192.231 108.305 191.578 108.305 190.93 108.36C190.831 108.384 190.728 108.384 190.63 108.36C190.138 108.41 189.651 108.49 189.17 108.6C188.891 108.67 188.599 108.67 188.32 108.6C188.264 108.585 188.205 108.585 188.15 108.6C187.67 108.72 187.15 108.79 186.69 108.88C186.445 108.948 186.204 109.032 185.97 109.13H185.83C185.77 109.12 185.709 109.12 185.65 109.13C185.075 109.322 184.522 109.574 184 109.88C183.684 109.972 183.373 110.082 183.07 110.21C183 110.31 182.56 110.2 182.51 110.29Z" fill="#221F1F"/>
<path d="M194.87 110.4C195.03 112.47 193.75 114.26 192 114.4C191.08 114.389 190.202 114.017 189.554 113.364C188.907 112.711 188.542 111.83 188.54 110.91C188.522 110.098 188.815 109.31 189.36 108.708C189.905 108.105 190.659 107.734 191.469 107.67C192.278 107.606 193.082 107.854 193.714 108.364C194.346 108.873 194.76 109.605 194.87 110.41V110.4Z" fill="#221F1F"/>
<path d="M216.001 102.8C216.001 103.04 215.701 102.99 215.201 102.8C215.041 102.75 214.651 102.48 214.641 102.38C214.617 102.201 214.617 102.019 214.641 101.84C214.972 101.236 215.397 100.689 215.901 100.22C216.243 99.8939 216.639 99.6299 217.071 99.44C217.901 99.0394 218.773 98.7341 219.671 98.53C219.865 98.4863 220.063 98.4629 220.261 98.46C220.931 98.4756 221.601 98.4253 222.261 98.31C222.374 98.318 222.486 98.29 222.581 98.2299C223.304 98.0723 224.047 98.0352 224.781 98.1199L226.461 98.55C226.541 98.55 226.631 98.5499 226.701 98.6499C226.771 98.7499 227.021 98.84 227.191 98.88C227.432 98.9212 227.667 98.9917 227.891 99.0899C228.011 99.1595 228.116 99.2511 228.201 99.36C228.291 99.46 228.201 99.74 228.151 99.77C228.101 99.8 228.101 99.9999 228.091 100.12C228.097 100.163 228.097 100.207 228.091 100.25C227.598 100.433 227.09 100.57 226.571 100.66C225.864 100.654 225.156 100.684 224.451 100.75C224.342 100.768 224.231 100.768 224.121 100.75C224.061 100.75 222.591 100.96 222.541 100.98C222.242 101.05 221.931 101.05 221.631 100.98C221.603 100.968 221.572 100.962 221.541 100.962C221.51 100.962 221.48 100.968 221.451 100.98C220.941 101.09 220.451 101.13 219.921 101.21C219.671 101.21 219.431 101.36 219.181 101.43C219.135 101.44 219.087 101.44 219.041 101.43C218.985 101.424 218.928 101.424 218.871 101.43C218.306 101.608 217.773 101.874 217.291 102.22C217.211 102.31 216.571 102.51 216.491 102.66C216.411 102.81 216.001 102.7 216.001 102.8Z" fill="#221F1F"/>
<path d="M228.051 101.61C228.254 102.03 228.362 102.489 228.369 102.955C228.376 103.421 228.281 103.883 228.091 104.309C227.901 104.735 227.621 105.114 227.269 105.421C226.918 105.727 226.504 105.954 226.056 106.084C225.609 106.214 225.138 106.246 224.677 106.176C224.216 106.106 223.776 105.936 223.387 105.679C222.998 105.421 222.67 105.082 222.426 104.685C222.181 104.288 222.026 103.843 221.971 103.38C221.782 102.588 221.905 101.754 222.314 101.05C222.723 100.347 223.387 99.8275 224.169 99.6C224.95 99.3725 225.789 99.4543 226.512 99.8284C227.235 100.203 227.786 100.84 228.051 101.61Z" fill="#221F1F"/>
<path d="M207.8 106.72L206.93 104.31C206.68 103.49 206.5 102.65 206.28 101.83C205.834 100.047 205.759 98.1924 206.06 96.3798C206.27 95.0049 206.767 93.6898 207.52 92.5198C208.865 90.6207 210.681 89.1043 212.79 88.1198C214.738 87.1888 216.784 86.4777 218.89 85.9998C220.71 85.5698 222.55 85.1798 224.37 84.8698C226.665 84.3562 229.02 84.1544 231.37 84.2698C231.53 84.2698 231.7 84.3498 231.71 84.4598L231.77 84.6298C231.77 84.7898 231.84 84.9498 231.88 85.1298V85.0098C231.88 84.9098 231.88 84.9498 231.88 85.0098C231.884 85.053 231.884 85.0966 231.88 85.1398C231.882 85.2388 231.865 85.3372 231.83 85.4298C231.757 85.6524 231.649 85.8618 231.51 86.0498C231.175 86.5353 230.742 86.9453 230.239 87.2536C229.736 87.5618 229.174 87.7615 228.59 87.8398C224.08 88.1569 219.621 88.989 215.3 90.3198C214.08 90.7162 212.953 91.352 211.982 92.19C211.012 93.028 210.219 94.0513 209.65 95.1998C209.08 96.4514 208.852 97.8316 208.99 99.1998C209.175 100.69 209.51 102.157 209.99 103.58C210.275 104.48 210.609 105.365 210.99 106.23L211.6 107.53C211.81 107.96 212.07 108.36 212.31 108.78C213.764 111.309 215.557 113.627 217.64 115.67C219.269 117.202 221.052 118.563 222.96 119.73C223.37 119.99 223.8 120.21 224.2 120.48C225.74 121.48 226.1 121.85 226.03 122.79C226.03 122.99 226.03 123.22 226.03 123.43C226.036 123.511 226.023 123.592 225.992 123.667C225.96 123.741 225.912 123.808 225.85 123.86C225.667 123.973 225.455 124.032 225.24 124.03C224.65 124.04 224.066 123.906 223.54 123.64C219.535 121.668 215.986 118.882 213.12 115.46C210.889 112.851 209.053 109.93 207.67 106.79L207.8 106.72Z" fill="#221F1F"/>
<path d="M181.751 91.5999C183.309 91.3292 184.89 91.2152 186.471 91.2599C187.031 91.2599 187.591 91.2599 188.151 91.2599C190.085 91.4917 191.998 91.8762 193.871 92.4099C194.691 92.6399 195.531 92.7999 196.351 92.9599C197.408 93.0573 198.431 93.3813 199.351 93.9099C199.376 93.9367 199.396 93.967 199.411 93.9999C199.411 93.9999 199.331 94.0599 199.321 94.1199C199.268 94.2461 199.247 94.3837 199.261 94.5199C199.269 94.6987 199.249 94.8776 199.201 95.0499C199.112 95.2364 199.004 95.4139 198.881 95.5799C198.351 96.2599 197.631 96.8499 197.071 96.6899C195.071 96.1499 193.171 95.5599 191.201 94.8399C189.985 94.5153 188.729 94.3638 187.471 94.3899C186.103 94.303 184.73 94.3465 183.371 94.5199C182.537 94.6215 181.713 94.7989 180.911 95.0499C179.693 95.4032 178.548 95.9722 177.531 96.7299C176.793 97.3561 176.168 98.1035 175.681 98.9399C175.571 99.1199 175.481 99.3099 175.361 99.4699C174.931 100.11 174.621 100.19 173.811 99.8399C173.624 99.7736 173.44 99.6968 173.261 99.6099C172.975 99.4792 172.753 99.2407 172.642 98.9466C172.532 98.6524 172.542 98.3265 172.671 98.0399C173.556 96.0014 175.103 94.321 177.061 93.2699C178.506 92.4542 180.068 91.864 181.691 91.5199L181.751 91.5999Z" fill="#221F1F"/>
<path d="M224 140.5C224.29 142.59 222.6 144.75 220.78 144.27C218.96 143.79 218.16 141.07 219.03 139.27C220.6 136.09 223.63 138 224 140.5Z" fill="#221F1F"/>
</svg>
